<svg width="122" height="28" viewBox="0 0 122 28" fill="none" xmlns="http://www.w3.org/2000/svg">
<rect y="1.42267" width="10.0619" height="25.1546" rx="5.03093" fill="#3155E7"/>
<rect x="12.5773" y="1.42267" width="10.0619" height="25.1546" rx="5.03093" fill="#010101"/>
<path d="M34.6119 7.75608V15.6798C34.6119 16.4722 34.8069 17.0822 35.1968 17.5098C35.5867 17.9374 36.1589 18.1512 36.9136 18.1512C37.6682 18.1512 38.2468 17.9374 38.6493 17.5098C39.0517 17.0822 39.253 16.4722 39.253 15.6798V7.75608H42.479V15.6609C42.479 16.8432 42.2275 17.8431 41.7244 18.6606C41.2213 19.4781 40.5421 20.0944 39.6869 20.5095C38.8442 20.9245 37.9009 21.1321 36.857 21.1321C35.8131 21.1321 34.8761 20.9308 34.046 20.5284C33.2284 20.1133 32.5807 19.497 32.1028 18.6795C31.6248 17.8494 31.3858 16.8432 31.3858 15.6609V7.75608H34.6119ZM47.9705 7.75608V21H44.7444V7.75608H47.9705ZM62.3244 14.2082C63.0917 14.3718 63.7079 14.7554 64.1733 15.3591C64.6387 15.9502 64.8713 16.6294 64.8713 17.3966C64.8713 18.5034 64.4814 19.3838 63.7017 20.0378C62.9344 20.6793 61.8591 21 60.4756 21H54.3064V7.75608H60.268C61.6138 7.75608 62.664 8.06423 63.4187 8.68051C64.1859 9.2968 64.5695 10.1332 64.5695 11.1897C64.5695 11.9695 64.362 12.6172 63.9469 13.1329C63.5444 13.6486 63.0036 14.007 62.3244 14.2082ZM57.5325 13.114H59.6455C60.1737 13.114 60.5762 13.0008 60.8529 12.7744C61.1422 12.5355 61.2868 12.1896 61.2868 11.7368C61.2868 11.284 61.1422 10.9381 60.8529 10.6992C60.5762 10.4602 60.1737 10.3407 59.6455 10.3407H57.5325V13.114ZM59.9096 18.3965C60.4504 18.3965 60.8655 18.277 61.1547 18.038C61.4566 17.7865 61.6075 17.428 61.6075 16.9627C61.6075 16.4973 61.4503 16.1326 61.1359 15.8685C60.834 15.6043 60.4127 15.4723 59.8719 15.4723H57.5325V18.3965H59.9096ZM77.1376 10.4728V21H73.9115V19.5662C73.5845 20.0315 73.138 20.4089 72.5721 20.6981C72.0186 20.9748 71.4024 21.1132 70.7232 21.1132C69.9182 21.1132 69.2076 20.9371 68.5913 20.5849C67.975 20.2202 67.4971 19.6982 67.1575 19.0191C66.8179 18.3399 66.6481 17.5412 66.6481 16.6231V10.4728H69.8554V16.1892C69.8554 16.8935 70.0377 17.4406 70.4025 17.8305C70.7672 18.2204 71.2577 18.4154 71.874 18.4154C72.5029 18.4154 72.9997 18.2204 73.3644 17.8305C73.7292 17.4406 73.9115 16.8935 73.9115 16.1892V10.4728H77.1376ZM81.0774 9.37856C80.5114 9.37856 80.046 9.21505 79.6813 8.88804C79.3291 8.54845 79.153 8.1334 79.153 7.64289C79.153 7.13979 79.3291 6.72474 79.6813 6.39773C80.046 6.05814 80.5114 5.88835 81.0774 5.88835C81.6308 5.88835 82.0835 6.05814 82.4357 6.39773C82.8005 6.72474 82.9828 7.13979 82.9828 7.64289C82.9828 8.1334 82.8005 8.54845 82.4357 8.88804C82.0835 9.21505 81.6308 9.37856 81.0774 9.37856ZM82.681 10.4728V21H79.4549V10.4728H82.681ZM88.245 7.03917V21H85.0189V7.03917H88.245ZM89.9414 15.7175C89.9414 14.6359 90.1427 13.6863 90.5451 12.8688C90.9602 12.0512 91.5199 11.4224 92.2242 10.9822C92.9285 10.542 93.7146 10.3219 94.5825 10.3219C95.2742 10.3219 95.9031 10.4665 96.4691 10.7558C97.0476 11.0451 97.5004 11.4349 97.8274 11.9255V7.03917H101.053V21H97.8274V19.4907C97.5256 19.9938 97.0916 20.3963 96.5257 20.6981C95.9723 21 95.3245 21.1509 94.5825 21.1509C93.7146 21.1509 92.9285 20.9308 92.2242 20.4906C91.5199 20.0378 90.9602 19.4027 90.5451 18.5852C90.1427 17.7551 89.9414 16.7992 89.9414 15.7175ZM97.8274 15.7364C97.8274 14.9314 97.601 14.2963 97.1482 13.8309C96.708 13.3656 96.1672 13.1329 95.5258 13.1329C94.8843 13.1329 94.3372 13.3656 93.8844 13.8309C93.4442 14.2837 93.2241 14.9126 93.2241 15.7175C93.2241 16.5225 93.4442 17.1639 93.8844 17.6419C94.3372 18.1072 94.8843 18.3399 95.5258 18.3399C96.1672 18.3399 96.708 18.1072 97.1482 17.6419C97.601 17.1765 97.8274 16.5413 97.8274 15.7364ZM113.311 15.5666C113.311 15.8685 113.292 16.1829 113.254 16.5099H105.953C106.004 17.1639 106.211 17.667 106.576 18.0192C106.953 18.3588 107.412 18.5286 107.953 18.5286C108.758 18.5286 109.318 18.189 109.632 17.5098H113.066C112.89 18.2015 112.569 18.8241 112.104 19.3775C111.651 19.9309 111.078 20.3648 110.387 20.6793C109.695 20.9937 108.921 21.1509 108.066 21.1509C107.035 21.1509 106.117 20.9308 105.312 20.4906C104.507 20.0504 103.878 19.4215 103.425 18.604C102.972 17.7865 102.746 16.8306 102.746 15.7364C102.746 14.6422 102.966 13.6863 103.406 12.8688C103.859 12.0512 104.488 11.4224 105.293 10.9822C106.098 10.542 107.022 10.3219 108.066 10.3219C109.085 10.3219 109.991 10.5357 110.783 10.9633C111.575 11.3909 112.192 12.0009 112.632 12.7933C113.085 13.5857 113.311 14.5101 113.311 15.5666ZM110.009 14.7176C110.009 14.1642 109.821 13.724 109.443 13.397C109.066 13.07 108.594 12.9065 108.028 12.9065C107.488 12.9065 107.029 13.0637 106.651 13.3781C106.286 13.6926 106.06 14.1391 105.972 14.7176H110.009ZM118.239 12.2273C118.616 11.6488 119.088 11.196 119.654 10.869C120.22 10.5294 120.849 10.3596 121.54 10.3596V13.7743H120.654C119.849 13.7743 119.245 13.9504 118.843 14.3026C118.44 14.6422 118.239 15.2459 118.239 16.1137V21H115.013V10.4728H118.239V12.2273Z" fill="black"/>
</svg>
